<svg width="1291pt" height="775pt" viewBox="0 0 1291 775" xmlns="http://www.w3.org/2000/svg"><path fill="#5ccbe3" d="M0 0h1291v682.06c-54.35.04-108.7.03-163.04-.01-7.36.09-14.74-.27-22.07.4-.12-3.9-.25-7.8-.27-11.7 1.01-52.56.99-105.14 2.3-157.69.02-38.5 1.17-76.99.78-115.49-.05-1.22-.08-2.44-.08-3.65-.09-12.69-.66-25.37-1.28-38.03 1.43-.98 2.83-1.98 4.26-2.96l1.2 1.36c11.24-7.17 22.34-16.18 27.4-28.91 2.84-6.57 2.92-13.92 2.1-20.9-3.13-13.17-11.65-24.3-21.23-33.55-7.03-7.08-15.09-13.01-22.93-19.15-6.04-4.31-13.9-2.94-20.85-3.07-3.52-3.78-4.1-9-4.76-13.88-.41-3.08 3.51-3.28 5.52-4.43 4.56-1.32 8.4-5.45 8.12-10.4-.33-6.03-2.08-11.94-1.67-18.02 3.94-3.37 3.43-8.64 2.92-13.27-1.4-.84-2.78-1.67-4.16-2.5-.98-6.69-1.71-13.42-2.66-20.11-.23-3.61-3.97-5.55-4.49-9.1-.35-2.49-2.88-3.6-5.14-3.55-8.85-.04-17.13 4.13-26 3.88-3.33.15-6.46-1.07-9.46-2.31.95 4.62 3.65 8.66 4.71 13.2.02 8.47 1.48 16.83 2.21 25.25l-3.01.16c-.06 3.25-.58 6.8 1.26 9.7.94 1.81 2.85 2.74 4.47 3.86 1.98 6.83 1.6 14.15 4.05 20.86 1.08 3.73 5.36 4.89 8.79 5.16 1.77.44 4.17-.19 5.36 1.58-.27 3.66-.97 7.27-1.17 10.93-1.53 1.61-2.63 4.21-5.15 4.31-5.64.88-11.76 1.92-16.05 6-11.38 12.28-24.05 23.37-37.54 33.28-6.9 4.62-14.02 9.84-22.44 11.03-2.57.7-3.68-2.12-4.19-4.08-1.02-4.39-.38-8.94.33-13.33 2.57-16.2 8.22-31.67 13.8-47.02 1-1.42-.43-2.22-1.54-2.55 1.49-1.82 2.73-3.92 4.62-5.37 3.86-1.43 8.03-1.77 11.87-3.29 1.41-.35 1.67-1.95 2.39-3 2.66-.46 6.02.61 8.09-1.52-.9-6.6-.9-13.28-1.71-19.9-4.15-.02-8.29.06-12.43.35-1.27-1.01-2.47-2.06-3.67-3.13-1.62 1.28-3.24 2.56-4.83 3.85-4.73.29-9.56-.13-14.15 1.28-.11 3.93-.2 7.87.19 11.79-9.43 2.45-19.25 2.38-28.82 4.02-10.26 1.72-20.69 1.99-30.96 3.64-5.71.69-11.43 1.26-17.14 1.94-11.4 1.85-22.99 1.99-34.41 3.69-7.51.73-14.99 1.83-22.54 1.99-8.5.84-16.98 2.1-25.54 2.03 1.17-2.24 1.27-4.56-.65-6.37-.46 2.82-.52 6.33-3.66 7.6-.02-2.67.26-5.32.6-7.95-3.2 2.1-6.6 3.87-9.99 5.62-1.36 1.15-2.7 2.63-4.6 2.73-15.99 1.78-32.04 2.72-48.05 4.12-8.12-.05-16.22.44-24.27 1.45-6.3.87-12.67.36-19 .65-.57-1.32-1.13-2.65-1.67-3.97l2.76-.48c-.01-.15-.04-.46-.05-.62-1.8.3-3.85 1.53-5.56.35-.43-1.92 2.2-2.26 3.28-3.31-1.9-2.03-4.24-3.54-6.85-4.45.22.72.47 1.45.7 2.18 1.5-1.45 3.04-.4 4.32.76-.91 2.66-2.73 4.88-3.81 7.46 1.29-.73 2.5-1.82 4.06-1.92.92 1.26 1.73 2.6 2.44 4.02-5.5 1.14-11.13.92-16.7.94.87-1.21 1.74-2.41 2.63-3.61.12-.19.34-.58.45-.78-1.36 1.36-2.72 2.71-4.06 4.06-.43-1.71-.82-3.41-1.23-5.12.15 1.85.29 3.7.46 5.55-8.55 1.54-17.29.3-25.87 1.69-8.76-.01-17.62.81-26.32-.49-2.36.97-5 1.23-6.28-1.45-3.45 1.55-6.99 2.99-10.78 3.42-.34-.85-.66-1.7-.98-2.54-.25 3.03-3.62 2-5.71 2.28-16.99-.31-33.94.97-50.93.81-17.03.19-34.03-.92-51.06-.84-8.14-.1-16.29.12-24.39-.83-7.01-.77-14.35.61-21.16-.83-.18-.74-.52-2.21-.7-2.95 1.32.28 2.65.59 3.98.89.38-2.05 2.01-4.3.87-6.34-2.41-1.09-5.16-1.14-7.71-1.76-.89.43-1.77.86-2.65 1.3-1.03 1.44-2.08 2.87-3.14 4.28-1.35-.14-2.7-.29-4.04-.42-.29-.36-.87-1.07-1.16-1.42-1.73.26-3.45.51-5.17.81-1.34 1.64-2.08 4.66-4.69 4.35-7.69.53-15.27-1.26-22.94-1.2-8.72-.6-17.36-2.09-26.12-1.97-35.39-3.8-70.89-7.51-105.7-15.14.08-3.81.08-7.61-.02-11.41-4.48-1.44-9.25-1.08-13.84-1.95-.82.25-1.63.51-2.44.79l-.59-.04c-5.65-2.36-11.97-.84-17.85-2.3-1.28 6.96-2.11 14.03-2.28 21.11 2.34.09 4.69.18 7.05.21 3.76 4.33 11.31 4.74 12.79 11l-2.5.48c.44 11.92 2.34 23.85 1.26 35.8-.51 7.55-1.24 15.73-5.92 22-2.93 4.19-8.86 3.12-13.06 1.87-13.93-5.77-24.77-16.71-35.4-27.06.17-3.86-.61-7.67-2.13-11.2-1.9-4.36-2.01-9.24-4.07-13.53-.97-3.25-2.08-6.46-3.63-9.47-2.9-.83-5.81-2.2-8.91-1.66-.09-.15-.27-.46-.36-.61 1.11-.25 2.23-.51 3.34-.8-.22-4.18-.34-8.37-.39-12.56 4.71.77 9.04 2.81 13.5 4.4 3.01 1.06 6.38 2.08 9.52.93 2.6-1.22 4.76-3.54 5.46-6.36 1.73-6.01 2.45-12.24 3.75-18.35 2.68-10.3 2.56-21.18 1.26-31.67 4.51-2.68 9.27-5.78 11.45-10.78 1.55-3.13.8-6.7.46-10.01-10.97 4.38-23.12 5.32-34.68 2.96-5.88-.8-12.25-4.37-17.93-.91-7.23 4.55-8.52 13.95-8.8 21.79.35 11.24-1.76 22.82 1.71 33.76l.37 1.06c1.12 3.27 2.79 6.33 5.15 8.86.37 4.66-.71 9.23-1.62 13.76.6.78 1.2 1.57 1.8 2.37-3.62-1.8-4.06 3.12-5.83 5.12-7.34 9.34-7.75 21.75-8.91 33.06-1.62 38.25-1.05 76.57-2.84 114.81-.22 1.28-.48 2.56-.67 3.85-.74 11.9-2.46 24.42 2.08 35.81 1.19 3.53 3.42 6.54 5.83 9.33-.69 33.5 1.28 66.97 1.83 100.47.97 12.91.8 25.86 1.37 38.8.34 14.34 1.18 28.66 1.15 43.01.36 17.01 1.41 34 1.48 51.01.05 4.05.28 8.09.48 12.14-62.56-.31-125.12.06-187.68-.15V0z"/><path fill="#352e27" d="M193.1 153.17c5.68-3.46 12.05.11 17.93.91 11.56 2.36 23.71 1.42 34.68-2.96.34 3.31 1.09 6.88-.46 10.01-2.18 5-6.94 8.1-11.45 10.78-1.35-.01-2.69-.07-4.03-.19-3.64-.48-7.86-.26-10.6 2.5-2.18 2.36-1.6 5.75-1.93 8.68-.5 4.88-1.68 9.65-2.29 14.52-1.14-1.33-2.35-2.6-3.28-4.08-1.32-2.66-.74-6.07-2.84-8.37-2.23-.74-4.15.84-5.5 2.4-4.7 5.27-7.82 11.68-11.18 17.83-1.09 2.38-3.69 3.31-5.77 4.58l-.37-1.06c-3.47-10.94-1.36-22.52-1.71-33.76.28-7.84 1.57-17.24 8.8-21.79zM1044.97 157.33c8.87.25 17.15-3.92 26-3.88 2.26-.05 4.79 1.06 5.14 3.55.52 3.55 4.26 5.49 4.49 9.1.95 6.69 1.68 13.42 2.66 20.11.66 2.19-.75 3.87-2.04 5.44-1.95-8.51-1.18-17.75-5.21-25.68-7.78 4.82-17.24 4.82-26.08 5.14-4.32.11-6.44 5.15-5.86 8.91.64 5.51 1.13 11.05.97 16.6-.92-1.03-1.81-2.05-2.61-3.15-.73-8.42-2.19-16.78-2.21-25.25-1.06-4.54-3.76-8.58-4.71-13.2 3 1.24 6.13 2.46 9.46 2.31z"/><path fill="#f0cfa1" d="M1049.93 171.11c8.84-.32 18.3-.32 26.08-5.14 4.03 7.93 3.26 17.17 5.21 25.68 1.29-1.57 2.7-3.25 2.04-5.44 1.38.83 2.76 1.66 4.16 2.5.51 4.63 1.02 9.9-2.92 13.27-.41 6.08 1.34 11.99 1.67 18.02.28 4.95-3.56 9.08-8.12 10.4-2.01 1.15-5.93 1.35-5.52 4.43-.11 3.76.95 7.42 1.08 11.16-.98 3.01-2.12 6.5-4.63 8.52-3.32-1.8-4.7-5.8-6.8-8.79.2-3.66.9-7.27 1.17-10.93-1.19-1.77-3.59-1.14-5.36-1.58-3.43-.27-7.71-1.43-8.79-5.16-2.45-6.71-2.07-14.03-4.05-20.86-1.62-1.12-3.53-2.05-4.47-3.86-1.84-2.9-1.32-6.45-1.26-9.7l3.01-.16c.8 1.1 1.69 2.12 2.61 3.15.16-5.55-.33-11.09-.97-16.6-.58-3.76 1.54-8.8 5.86-8.91zM219.17 174.22c2.74-2.76 6.96-2.98 10.6-2.5 1.23.36 2.46.73 3.69 1.13.17 11.02 1.49 22.48-2.36 33.07-1.94 1.92-4.89 2.38-6.89 4.23-1.57 1.93-2.39 4.43-2.6 6.89.21 3.28 2.53 5.87 4.33 8.44-1.56 1.03-2.95 2.6-4.88 2.86-2.45-.02-4.86-.5-7.25-.98-4.46-1.59-8.79-3.63-13.5-4.4.05 4.19.17 8.38.39 12.56-1.11.29-2.23.55-3.34.8-1.92-.4-3.79-.99-5.65-1.55-.6-.8-1.2-1.59-1.8-2.37.91-4.53 1.99-9.1 1.62-13.76-2.36-2.53-4.03-5.59-5.15-8.86 2.08-1.27 4.68-2.2 5.77-4.58 3.36-6.15 6.48-12.56 11.18-17.83 1.35-1.56 3.27-3.14 5.5-2.4 2.1 2.3 1.52 5.71 2.84 8.37.93 1.48 2.14 2.75 3.28 4.08.61-4.87 1.79-9.64 2.29-14.52.33-2.93-.25-6.32 1.93-8.68z"/><path fill="#f7fcfb" d="M229.77 171.72c1.34.12 2.68.18 4.03.19 1.3 10.49 1.42 21.37-1.26 31.67-1.3 6.11-2.02 12.34-3.75 18.35-.7 2.82-2.86 5.14-5.46 6.36-3.14 1.15-6.51.13-9.52-.93 2.39.48 4.8.96 7.25.98 1.93-.26 3.32-1.83 4.88-2.86-1.8-2.57-4.12-5.16-4.33-8.44.21-2.46 1.03-4.96 2.6-6.89 2-1.85 4.95-2.31 6.89-4.23 3.85-10.59 2.53-22.05 2.36-33.07-1.23-.4-2.46-.77-3.69-1.13zM874.89 194.34c3.35-.2-1.23 3.09 0 0z"/><path fill="#f0cfa1" d="M993.73 201.35c1.59-1.29 3.21-2.57 4.83-3.85 1.2 1.07 2.4 2.12 3.67 3.13-2.84.25-5.67.55-8.5.72z"/><path fill="#dd6031" d="M1002.23 200.63c4.14-.29 8.28-.37 12.43-.35.81 6.62.81 13.3 1.71 19.9-2.07 2.13-5.43 1.06-8.09 1.52-7.86.44-15.7 1.25-23.56 1.6-.44-.01-1.33-.04-1.78-.05-.56-.23-1.7-.67-2.27-.9-.21-2.05-.42-4.1-.68-6.14-.06-.44-.17-1.34-.22-1.79-.39-3.92-.3-7.86-.19-11.79 4.59-1.41 9.42-.99 14.15-1.28 2.83-.17 5.66-.47 8.5-.72z"/><path fill="#f7fcfb" d="M400.16 201.36c.6.41.6.41 0 0z"/><path fill="#dd6031" d="M254.52 207.38c5.88 1.46 12.2-.06 17.85 2.3-.24.13-.7.4-.93.53-.64.54-1.91 1.64-2.54 2.19-.17 5.93-.08 11.86-.18 17.79-3.1-.76-6.21-1.64-9.43-1.49-2.36-.03-4.71-.12-7.05-.21.17-7.08 1-14.15 2.28-21.11z"/><path fill="#f7fcfb" d="M272.96 209.72c.81-.28 1.62-.54 2.44-.79 4.59.87 9.36.51 13.84 1.95.1 3.8.1 7.6.02 11.41 34.81 7.63 70.31 11.34 105.7 15.14 8.76-.12 17.4 1.37 26.12 1.97 7.67-.06 15.25 1.73 22.94 1.2 2.61.31 3.35-2.71 4.69-4.35 1.72-.3 3.44-.55 5.17-.81.29.35.87 1.06 1.16 1.42 1.34.13 2.69.28 4.04.42 1.06-1.41 2.11-2.84 3.14-4.28.88-.44 1.76-.87 2.65-1.3 2.55.62 5.3.67 7.71 1.76 1.14 2.04-.49 4.29-.87 6.34-1.33-.3-2.66-.61-3.98-.89.18.74.52 2.21.7 2.95 6.81 1.44 14.15.06 21.16.83 8.1.95 16.25.73 24.39.83 17.03-.08 34.03 1.03 51.06.84 16.99.16 33.94-1.12 50.93-.81 2.09-.28 5.46.75 5.71-2.28.32.84.64 1.69.98 2.54 3.79-.43 7.33-1.87 10.78-3.42 1.28 2.68 3.92 2.42 6.28 1.45 8.7 1.3 17.56.48 26.32.49 8.58-1.39 17.32-.15 25.87-1.69-.17-1.85-.31-3.7-.46-5.55.41 1.71.8 3.41 1.23 5.12 1.34-1.35 2.7-2.7 4.06-4.06-.11.2-.33.59-.45.78-.89 1.2-1.76 2.4-2.63 3.61 5.57-.02 11.2.2 16.7-.94-.71-1.42-1.52-2.76-2.44-4.02-1.56.1-2.77 1.19-4.06 1.92 1.08-2.58 2.9-4.8 3.81-7.46-1.28-1.16-2.82-2.21-4.32-.76-.23-.73-.48-1.46-.7-2.18 2.61.91 4.95 2.42 6.85 4.45-1.08 1.05-3.71 1.39-3.28 3.31 1.71 1.18 3.76-.05 5.56-.35.01.16.04.47.05.62l-2.76.48c.54 1.32 1.1 2.65 1.67 3.97 6.33-.29 12.7.22 19-.65 8.05-1.01 16.15-1.5 24.27-1.45 16.01-1.4 32.06-2.34 48.05-4.12 1.9-.1 3.24-1.58 4.6-2.73 3.39-1.75 6.79-3.52 9.99-5.62-.34 2.63-.62 5.28-.6 7.95 3.14-1.27 3.2-4.78 3.66-7.6 1.92 1.81 1.82 4.13.65 6.37 8.56.07 17.04-1.19 25.54-2.03 7.55-.16 15.03-1.26 22.54-1.99 11.42-1.7 23.01-1.84 34.41-3.69 5.71-.68 11.43-1.25 17.14-1.94 10.27-1.65 20.7-1.92 30.96-3.64 9.57-1.64 19.39-1.57 28.82-4.02.05.45.16 1.35.22 1.79-8 .45-15.88 1.95-23.84 2.75-9.14.92-18.25 2.1-27.35 3.27-17.68 1.27-35.15 4.73-52.86 5.53-10.38 1.3-20.8 2.23-31.19 3.42-10 .43-19.94 1.61-29.88 2.7-1.83 6.19-3.01 12.54-4.73 18.76-4.16-.62-8.27-1.53-12.25-2.87-5.18-1.71-10.71-2.04-15.78-4.1 5.39-3.27 11.03-6.19 16.08-10-5.54-.45-11.11-.2-16.6.62-9.53.53-19.02 1.53-28.53 2.25-9.41-.49-18.63 2.01-28.03 1.83-4.96-.08-9.88.52-14.74 1.43-1.19-.19-2.36-.37-3.53-.55-.17 2.03-.31 4.06-.46 6.09-3.24.5-6.53.33-9.67-.61.18-.81.37-1.61.57-2.42.78 3.62 4.98 3.4 7.83 2.82 1.76-1.39 1.19-3.91 1.68-5.83-2.02.19-4.02.39-6.02.59-7.6-1.01-15.12 1.11-22.73.66-7.01-.42-13.92 1.24-20.92.97-6.04-.28-12.01.73-18.02.98 1.15.88 2.77 1.48 3.2 3.03-.36 2.47-.99 4.89-1.5 7.33-.59.03-1.76.08-2.35.11.69 3.35-1.17 6.46-2.02 9.6-.79-.31-2.36-.92-3.15-1.22-1.8-.91-3.65-1.71-5.51-2.44-1.03-2.68-1.65-5.75.34-8.19 1.71.19 3.36.61 5.07.92-1.03-1.22-2.03-2.42-3.05-3.64-.48.2-1.45.58-1.94.77 1.07-2.03 2.02-4.13 2.88-6.26-3.36.07-6.93-.67-10.15.42-1.64 3.67 3.77 4.18 6.21 4.91-.7.04-2.09.11-2.79.15.94.74 1.88 1.48 2.83 2.22-2.37-1.09-4.7-2.28-7.22-2.96-2.1 1.8-2.3 4.76-2.91 7.29 3.15 1.02 6.31 2.05 9.35 3.37-3.33-.77-6.56-1.87-9.8-2.94-.05-4.41 3.25-7.92 3.74-12.12l-.93-.4c-18.8.09-37.6.27-56.39.91-19.33-.87-38.7-.61-58.05-1.04-11.97-.96-23.99-.71-35.99-.89.29 1.53.59 3.07.88 4.61-.79-1.85-1.57-3.7-2.37-5.53-4.71.06-9.46-.23-14.13.53-1.95.55-3.64-.87-5.35-1.53-.29.49-.88 1.47-1.17 1.96-3.06-2.54-7.15-1.8-10.81-2.05-9.99-.8-19.97-1.7-29.98-2.11-21.02-1.95-42.09-3.75-62.98-6.87-12.02-1.1-23.82-3.66-35.77-5.28-6.38-1.12-12.65-3.06-19.18-3.05.33-4.3 2.75-9.32.07-13.21-4.92-1.31-10.08-1.41-15.14-1.18z"/><path fill="#f0cfa1" d="M271.44 210.21c.23-.13.69-.4.93-.53l.59.04c.07.63.22 1.91.3 2.55.68.11 1.37.22 2.06.34.04 1.27.09 2.54.15 3.81l2.11.12c-.08 5.03.43 10.04 1.27 14.99-.19 2.6-1.05 5.1-2.34 7.36-1.47.29-2.95.55-4.43.81-1.48-6.26-9.03-6.67-12.79-11 3.22-.15 6.33.73 9.43 1.49.1-5.93.01-11.86.18-17.79.63-.55 1.9-1.65 2.54-2.19z"/><path fill="#dd6031" d="M272.96 209.72c5.06-.23 10.22-.13 15.14 1.18 2.68 3.89.26 8.91-.07 13.21-.59 2.44-.05 5.37-1.88 7.34-2.43.26-4.87.11-7.3.08-.84-4.95-1.35-9.96-1.27-14.99l-2.11-.12c-.06-1.27-.11-2.54-.15-3.81-.69-.12-1.38-.23-2.06-.34-.08-.64-.23-1.92-.3-2.55z"/><path fill="#f7fcfb" d="M411.25 212.29c.51.51.51.51 0 0z"/><path fill="#5ccbe3" d="M956.15 218.96c7.96-.8 15.84-2.3 23.84-2.75.26 2.04.47 4.09.68 6.14.57.23 1.71.67 2.27.9.45.01 1.34.04 1.78.05l.05.63c.08 2.01.06 4.02.04 6.04-1.65 1.38-3.14 3-3.83 5.08-6.66 17.16-13.6 34.5-15.84 52.91-.7 5.16-.28 10.52 1.61 15.41 2.11 5.28 7.52 9.16 13.27 9.05 9.59.34 18.18-4.68 26.23-9.29 10.39-6.57 20.35-13.9 29.49-22.14 3.46 37.65 6.77 75.32 10.65 112.92.01 19.04-1.06 38.08-.54 57.13.72 21.98.62 43.98 1.4 65.97.35 14.66.73 29.33.83 44 1.31 27.31 1.17 54.67 2.16 82 .36 9.65.33 19.3.46 28.96.01 14.67.78 29.32.97 44-.26-.3-.79-.89-1.05-1.19-1.04-10.81.03-21.73-.82-32.57-129.61-.31-259.23-.04-388.84-.14-105.01.01-210.02 0-315.03-.01-47.92.13-95.84-.16-143.75.15-.21 6.25-.43 12.51-.65 18.76-.19-2.7-.43-5.4-.55-8.1 1.77-56.31 4.22-112.59 6.32-168.89.7-26.67 2.42-53.32 2.31-80.02-.55-4.76 3.52-8.11 4.77-12.41 4.24-12.76 5.9-26.35 5.07-39.77-.02-2.27-.14-4.55.15-6.8.92-3.31 2.5-6.48 2.61-9.97.37-9.31.16-18.63.22-27.94-.1-11.36.41-22.76-.93-34.07.04-5.74-1.17-11.48-.25-17.19 9.66 7.75 20.38 14.98 32.79 17.22 8.49 1.56 17.57-2.63 21.76-10.19 6.6-11.8 6.12-25.78 5.76-38.85-.72-8.28-1.23-16.61-2.91-24.75-.53-.09-1.6-.26-2.14-.35 1.29-2.26 2.15-4.76 2.34-7.36 2.43.03 4.87.18 7.3-.08 1.83-1.97 1.29-4.9 1.88-7.34 6.53-.01 12.8 1.93 19.18 3.05 11.95 1.62 23.75 4.18 35.77 5.28 20.89 3.12 41.96 4.92 62.98 6.87 10.01.41 19.99 1.31 29.98 2.11 3.66.25 7.75-.49 10.81 2.05.29-.49.88-1.47 1.17-1.96 1.71.66 3.4 2.08 5.35 1.53 4.67-.76 9.42-.47 14.13-.53.8 1.83 1.58 3.68 2.37 5.53-.29-1.54-.59-3.08-.88-4.61 12 .18 24.02-.07 35.99.89 19.35.43 38.72.17 58.05 1.04 18.79-.64 37.59-.82 56.39-.91l.93.4c-.49 4.2-3.79 7.71-3.74 12.12 3.24 1.07 6.47 2.17 9.8 2.94-3.04-1.32-6.2-2.35-9.35-3.37.61-2.53.81-5.49 2.91-7.29 2.52.68 4.85 1.87 7.22 2.96-.95-.74-1.89-1.48-2.83-2.22.7-.04 2.09-.11 2.79-.15-2.44-.73-7.85-1.24-6.21-4.91 3.22-1.09 6.79-.35 10.15-.42-.86 2.13-1.81 4.23-2.88 6.26.49-.19 1.46-.57 1.94-.77 1.02 1.22 2.02 2.42 3.05 3.64-1.71-.31-3.36-.73-5.07-.92-1.99 2.44-1.37 5.51-.34 8.19 1.86.73 3.71 1.53 5.51 2.44.79.3 2.36.91 3.15 1.22.85-3.14 2.71-6.25 2.02-9.6.59-.03 1.76-.08 2.35-.11.51-2.44 1.14-4.86 1.5-7.33-.43-1.55-2.05-2.15-3.2-3.03 6.01-.25 11.98-1.26 18.02-.98 7 .27 13.91-1.39 20.92-.97 7.61.45 15.13-1.67 22.73-.66 2-.2 4-.4 6.02-.59-.49 1.92.08 4.44-1.68 5.83-2.85.58-7.05.8-7.83-2.82-.2.81-.39 1.61-.57 2.42 3.14.94 6.43 1.11 9.67.61.15-2.03.29-4.06.46-6.09 1.17.18 2.34.36 3.53.55 4.86-.91 9.78-1.51 14.74-1.43 9.4.18 18.62-2.32 28.03-1.83 9.51-.72 19-1.72 28.53-2.25 5.49-.82 11.06-1.07 16.6-.62-5.05 3.81-10.69 6.73-16.08 10 5.07 2.06 10.6 2.39 15.78 4.1 3.98 1.34 8.09 2.25 12.25 2.87 1.72-6.22 2.9-12.57 4.73-18.76 9.94-1.09 19.88-2.27 29.88-2.7 10.39-1.19 20.81-2.12 31.19-3.42 17.71-.8 35.18-4.26 52.86-5.53 9.1-1.17 18.21-2.35 27.35-3.27z"/><path fill="#f7fcfb" d="M1021.78 219.45c4.95-.14 9.75 1.57 14.73 1.16l.16 2.13c-2.87-.6-5.77-1.16-8.7-1.3-2.15-.23-4.78-.03-6.19-1.99z"/><path fill="#f0cfa1" d="M984.72 223.3c7.86-.35 15.7-1.16 23.56-1.6-.72 1.05-.98 2.65-2.39 3-3.84 1.52-8.01 1.86-11.87 3.29-1.89 1.45-3.13 3.55-4.62 5.37-1.21-.44-2.37-.94-3.5-1.49-.56-2.62-.8-5.29-1.13-7.94l-.05-.63z"/><path fill="#f7fcfb" d="M984.81 229.97c.02-2.02.04-4.03-.04-6.04.33 2.65.57 5.32 1.13 7.94 1.13.55 2.29 1.05 3.5 1.49 1.11.33 2.54 1.13 1.54 2.55-5.58 15.35-11.23 30.82-13.8 47.02-.71 4.39-1.35 8.94-.33 13.33.51 1.96 1.62 4.78 4.19 4.08 8.42-1.19 15.54-6.41 22.44-11.03 13.49-9.91 26.16-21 37.54-33.28 4.29-4.08 10.41-5.12 16.05-6 2.52-.1 3.62-2.7 5.15-4.31 2.1 2.99 3.48 6.99 6.8 8.79 2.51-2.02 3.65-5.51 4.63-8.52-.13-3.74-1.19-7.4-1.08-11.16.66 4.88 1.24 10.1 4.76 13.88 6.95.13 14.81-1.24 20.85 3.07 7.84 6.14 15.9 12.07 22.93 19.15 9.58 9.25 18.1 20.38 21.23 33.55.82 6.98.74 14.33-2.1 20.9-5.06 12.73-16.16 21.74-27.4 28.91l-1.2-1.36c-1.06-1.21-2.1-2.44-3.12-3.66 9.61-7.22 19.8-15.09 24.03-26.82 3.61-8.71 1.55-18.73-3.3-26.52-6.4-10.44-15.49-19.06-25.36-26.2.48 8.74.87 17.49 1.46 26.22.01 18.01 1.5 35.97 1.71 53.98-3.87-.59-7.69-1.96-11.64-1.39 1.6.96 3.25 1.87 4.91 2.78-3.38 2.63-7.22 4.57-10.52 7.28 3.62-.75 7.32-.67 10.99-.25 2.49.45 4.6-1.21 6.58-2.46.62 12.66 1.19 25.34 1.28 38.03-20.74-.06-41.49-.04-62.23-.01-3.88-37.6-7.19-75.27-10.65-112.92-9.14 8.24-19.1 15.57-29.49 22.14-8.05 4.61-16.64 9.63-26.23 9.29-5.75.11-11.16-3.77-13.27-9.05-1.89-4.89-2.31-10.25-1.61-15.41 2.24-18.41 9.18-35.75 15.84-52.91.69-2.08 2.18-3.7 3.83-5.08z"/><path fill="#5ccbe3" d="M809.72 229.58c1.69-.75 3.36-1.54 5.05-2.34.17 1.7.34 3.39.56 5.09-2.67.2-5.53.93-8.04-.35.81-.79 1.62-1.59 2.43-2.4zM458.8 238.08c1.82-2.13 3.61-4.47 6.16-5.76 2.32.44 4.59 1.14 6.81 1.97.51 1.7-.16 3.46-.4 5.15-1.69-.4-3.38-.79-5.06-1.18.71.92 1.14 1.94 1.31 3.07-6.86.74-13.87.28-20.68-.85 1.62-2.61 5.78-5.96 8.36-2.7 1.16.12 2.33.22 3.5.3z"/><path fill="#f7fcfb" d="M185.88 239.89c1.77-2 2.21-6.92 5.83-5.12 1.86.56 3.73 1.15 5.65 1.55.09.15.27.46.36.61 3.1-.54 6.01.83 8.91 1.66 1.55 3.01 2.66 6.22 3.63 9.47-1.07-.47-2.14-.92-3.22-1.35.26 5.16 3.88 9.22 4.76 14.22 1.21 4.08.48 9.35 4.66 11.86 10.63 10.35 21.47 21.29 35.4 27.06 4.2 1.25 10.13 2.32 13.06-1.87 4.68-6.27 5.41-14.45 5.92-22 1.08-11.95-.82-23.88-1.26-35.8l2.5-.48c1.48-.26 2.96-.52 4.43-.81.54.09 1.61.26 2.14.35 1.68 8.14 2.19 16.47 2.91 24.75.36 13.07.84 27.05-5.76 38.85-4.19 7.56-13.27 11.75-21.76 10.19-12.41-2.24-23.13-9.47-32.79-17.22-1.4-1.17-2.74-2.39-4.08-3.6.55 13.91.5 27.83.69 41.75.69 11.99.75 23.99.78 35.99-.16 6.03 1.47 12.05.13 18.04-14.88-.41-29.76-.09-44.64-.23 1.79-38.24 1.22-76.56 2.84-114.81 1.16-11.31 1.57-23.72 8.91-33.06z"/><path fill="#5ccbe3" d="M811.24 234.2c.69.03 2.06.09 2.75.11-.69 3.36-1.82 6.61-2.57 9.96-.73 2.43-1.47 4.89-1.64 7.45-1.83.01-3.6-.32-5.27-.98-6.71-1.9-13.5-3.5-20.27-5.14 2.35-2.59 5.87-3.51 8.48-5.78 4.7-2.89 9.61-6.37 15.46-5.35-.84 1.79-2.71 2.62-4.28 3.61-3.62 2.05-7.12 4.31-10.73 6.36 5.12.41 9.81 3.04 14.98 3.11.7-4.52 1.63-9.01 3.09-13.35z"/><path fill="#5ccbe3" d="M795.68 244.22c4.28-3.7 9.43-6.37 14.44-8.96-1.14 3.95-1.44 8.1-2.85 11.97-3.86-1.03-7.75-1.93-11.59-3.01zM632.71 245.32c3.43-.03 7.35.02 9.27 3.43-.8 1.63-1.46 3.33-2.36 4.91-3.09 1.46-5.94-1.46-8.57-2.72.56-1.87 1.12-3.74 1.66-5.62z"/><path fill="#f0cfa1" d="M207.04 246.71c1.08.43 2.15.88 3.22 1.35 2.06 4.29 2.17 9.17 4.07 13.53 1.52 3.53 2.3 7.34 2.13 11.2-4.18-2.51-3.45-7.78-4.66-11.86-.88-5-4.5-9.06-4.76-14.22z"/><path fill="#5ccbe3" d="M629.51 253.92c1.89.23 3.78.45 5.69.6.97.83 1.9 1.7 2.77 2.66-.57 2.33-1.49 6.05-4.49 5.96-1.63-1.55-3.71-2.37-5.84-2.94.5-2.13 1.07-4.24 1.87-6.28z"/><path fill="#9fad69" d="M1068.33 254.84c3.13 1.08 3.93 4.17 4.58 7.08-1.33 2.87-1.47 6.01-.91 9.09.81 13.04 1.92 26.07 3.06 39.08 1.25 22.69 3.67 45.29 4.99 67.97-.36 3.42-3.15 6.06-4.81 8.97-2.06-2.03-4.02-4.15-5.9-6.34-.68-27.55-1.7-55.09-2.05-82.66-.83-10.01-.57-20.06-.72-30.09.18-2.15-.87-4.05-1.77-5.91.24-1.45.54-2.9.82-4.34.9-.95 1.8-1.9 2.71-2.85z"/><path fill="#f7fcfb" d="M584.48 259.34c1.55-1.95 5.13-1.5 6.24.74 1.19 1.6.81 3.69 1.01 5.55-5.79 3.89-11.53 7.85-17.36 11.67-2.68.8-5.56.36-8.32.39.83-2.77 1.69-5.69 3.65-7.9 4.77-3.7 10.26-6.43 14.78-10.45z"/><path fill="#5ccbe3" d="M586.17 259.21c4.13-2.3 7.27 5.9 3.01 7.52-.66-2.6-4.03-4.75-3.01-7.52zM572.27 272.15c4.39-3.26 8.83-6.96 14.08-8.67-.56 1.36-1.1 2.84-2.52 3.51-3.36 2.09-6.43 4.62-9.86 6.6-.46-.1-1.4-.29-1.86-.39l.16-1.05zM1103.85 269.73c9.87 7.14 18.96 15.76 25.36 26.2 4.85 7.79 6.91 17.81 3.3 26.52-4.23 11.73-14.42 19.6-24.03 26.82-.36.17-1.09.49-1.46.66-.21-18.01-1.7-35.97-1.71-53.98-.59-8.73-.98-17.48-1.46-26.22zM566.85 277.18c.66-2.19 1.5-4.34 2.97-6.12 1.18 1.97 2.29 3.99 3.31 6.06-2.1.04-4.19.06-6.28.06z"/><path fill="#9fad69" d="M217.17 292.21c1.34 1.21 2.68 2.43 4.08 3.6-.92 5.71.29 11.45.25 17.19 1.34 11.31.83 22.71.93 34.07-.06 9.31.15 18.63-.22 27.94-.11 3.49-1.69 6.66-2.61 9.97-.29 2.25-.17 4.53-.15 6.8-.27-1.26-.5-2.52-.68-3.79 1.34-5.99-.29-12.01-.13-18.04-.03-12-.09-24-.78-35.99-.19-13.92-.14-27.84-.69-41.75z"/><path fill="#f0cfa1" d="M1095.38 348.54c3.95-.57 7.77.8 11.64 1.39.37-.17 1.1-.49 1.46-.66 1.02 1.22 2.06 2.45 3.12 3.66-1.43.98-2.83 1.98-4.26 2.96-1.98 1.25-4.09 2.91-6.58 2.46-3.67-.42-7.37-.5-10.99.25 3.3-2.71 7.14-4.65 10.52-7.28-1.66-.91-3.31-1.82-4.91-2.78z"/><path fill="#dd6031" d="M173.46 391.61c.19-1.29.45-2.57.67-3.85 14.88.14 29.76-.18 44.64.23.18 1.27.41 2.53.68 3.79-15.33-.29-30.66.02-45.99-.17z"/><path fill="#12384d" d="M173.46 391.61c15.33.19 30.66-.12 45.99.17.83 13.42-.83 27.01-5.07 39.77-1.25 4.3-5.32 7.65-4.77 12.41.11 26.7-1.61 53.35-2.31 80.02-2.1 56.3-4.55 112.58-6.32 168.89-.88 8.58-.77 17.21-1.07 25.82-.27 1.17-.56 2.35-.87 3.53-3.2-.23-6.51-.81-9.65.09-.33 1.13-.6 2.28-.83 3.45.06-2.28.26-4.55.26-6.82-.22-12.26-.75-24.51-1.14-36.76-.2-4.05-.43-8.09-.48-12.14-.07-17.01-1.12-34-1.48-51.01.03-14.35-.81-28.67-1.15-43.01-.57-12.94-.4-25.89-1.37-38.8-.55-33.5-2.52-66.97-1.83-100.47-2.41-2.79-4.64-5.8-5.83-9.33-4.54-11.39-2.82-23.91-2.08-35.81zM1045.85 451.04c-.52-19.05.55-38.09.54-57.13.41 1.23.84 2.46 1.28 3.7 20.34-.05 40.69.02 61.03-.04.39 38.5-.76 76.99-.78 115.49-1.31 52.55-1.29 105.13-2.3 157.69-.45 15.86-.06 31.73-.45 47.59-3.29-.28-6.61-.36-9.88.1-.38-11.12-1.53-22.18-1.83-33.29-1.23-24.36-2.38-48.72-3.91-73.07-1.77-40.74-4.5-81.44-6.27-122.19-.93-12.35-1.03-24.76-2.31-37.09-2.6.02-5.18.05-7.76.09-2.95 81.53-6.38 163.05-9.4 244.57-.86 6.17.51 12.59-1.26 18.62-.44-.04-1.32-.13-1.77-.17-2-1.64-4.77-1.76-6.58.22-.47.11-1.39.32-1.86.42l-.67-.58c-.19-14.68-.96-29.33-.97-44-.13-9.66-.1-19.31-.46-28.96-.99-27.33-.85-54.69-2.16-82-.1-14.67-.48-29.34-.83-44-.78-21.99-.68-43.99-1.4-65.97z"/><path fill="#dd6031" d="M1046.39 393.91c20.74-.03 41.49-.05 62.23.01 0 1.21.03 2.43.08 3.65-20.34.06-40.69-.01-61.03.04-.44-1.24-.87-2.47-1.28-3.7z"/><path fill="#5ccbe3" d="M1073.21 452.89c2.58-.04 5.16-.07 7.76-.09 1.28 12.33 1.38 24.74 2.31 37.09 1.77 40.75 4.5 81.45 6.27 122.19 1.53 24.35 2.68 48.71 3.91 73.07-1.11-1.45-2.22-3.44-4.36-3.06-7.96-.1-15.93-.07-23.88.11-.33 5.1.1 10.31-1.41 15.26 3.02-81.52 6.45-163.04 9.4-244.57z"/><path fill="#41bacd" d="M1105.17 718.34c.39-15.86 0-31.73.45-47.59.02 3.9.15 7.8.27 11.7 7.33-.67 14.71-.31 22.07-.4 54.34.04 108.69.05 163.04.01V775H0v-92.97c62.56.21 125.12-.16 187.68.15.39 12.25.92 24.5 1.14 36.76-16.02-.06-32.02 1.39-47.81 4.05-6.74 1.5-13.76 2.74-19.84 6.19-2.03 1.25-4.74 3.49-3.58 6.18 1.32 2.3 3.79 3.63 6.11 4.75 8.24 3.55 17.28 4.37 25.99 6.14 23.65 2.64 47.58 3.63 71.32 1.69 12.45-.28 24.84-2.22 36.94-5.09 4.63-1.25 9.49-2.54 13.29-5.6 1.66-1.15 1.89-3.32 1.59-5.15-2.57-3.05-6.51-4.41-10.15-5.71-12.9-4.42-26.6-5.28-40.05-6.8-7.57-.38-15.15-.41-22.72-.9.3-8.61.19-17.24 1.07-25.82.12 2.7.36 5.4.55 8.1.22-6.25.44-12.51.65-18.76 47.91-.31 95.83-.02 143.75-.15 105.01.01 210.02.02 315.03.01 129.61.1 259.23-.17 388.84.14.85 10.84-.22 21.76.82 32.57.26.3.79.89 1.05 1.19l.67.58c.06.75.17 2.26.23 3.01-.53.24-1.58.72-2.11.96-5.14-.53-10.24.45-15.32 1.02-7.69 1.07-15.42 2.22-22.75 4.88-3.59 1.33-7.78 2.52-9.95 5.93-1.26 2.8 1.29 5.3 3.56 6.53 4.95 2.68 10.5 3.93 15.96 5.12 25.66 5.18 51.98 5.32 78.04 4.52 9.9-.74 19.84-1.25 29.63-3.06 8.25-1.53 16.8-2.69 24.36-6.59 2.21-1.18 5.01-3.75 3.54-6.47-2.26-3.74-6.85-4.86-10.69-6.25-13.16-4.52-27.18-5.04-40.87-6.61l-.8-1.2z"/><path fill="#41bacd" d="M1065.22 682.2c7.95-.18 15.92-.21 23.88-.11 2.14-.38 3.25 1.61 4.36 3.06.3 11.11 1.45 22.17 1.83 33.29-5.41 1.09-10.86-.63-16.29-.02-5.93.56-11.88.8-17.83.73.45-1.03.9-2.06 1.38-3.07 1.77-6.03.4-12.45 1.26-18.62 1.51-4.95 1.08-10.16 1.41-15.26z"/><path fill="#352e27" d="M1054.2 716.13c1.81-1.98 4.58-1.86 6.58-.22-2.18.41-4.4.47-6.58.22z"/><path fill="#9fad69" d="M1052.34 716.55c.47-.1 1.39-.31 1.86-.42 2.18.25 4.4.19 6.58-.22.45.04 1.33.13 1.77.17-.48 1.01-.93 2.04-1.38 3.07.47 1.33 1.04 2.65 1.64 3.95l-1.16-1.48c-.31.53-.92 1.61-1.23 2.15.29-2.45.27-4.91.28-7.35-2.37.05-4.73.12-7.09.2.06 2.02.11 4.02.18 6.05-.84-1.22-2.23-1.58-3.62-1.36.07-.2.22-.59.29-.79.53-.24 1.58-.72 2.11-.96-.06-.75-.17-2.26-.23-3.01z"/><path fill="#f0cfa1" d="M1053.61 716.62c2.36-.08 4.72-.15 7.09-.2-.01 2.44.01 4.9-.28 7.35-.89 1.36-2.37 2.7-4.12 2.11-.93-1-1.72-2.16-2.51-3.21-.07-2.03-.12-4.03-.18-6.05z"/><path fill="#34a5b4" d="M199.91 718.69c7.57.49 15.15.52 22.72.9 13.45 1.52 27.15 2.38 40.05 6.8 3.64 1.3 7.58 2.66 10.15 5.71.3 1.83.07 4-1.59 5.15-3.8 3.06-8.66 4.35-13.29 5.6-12.1 2.87-24.49 4.81-36.94 5.09-23.74 1.94-47.67.95-71.32-1.69-8.71-1.77-17.75-2.59-25.99-6.14-2.32-1.12-4.79-2.45-6.11-4.75-1.16-2.69 1.55-4.93 3.58-6.18 6.08-3.45 13.1-4.69 19.84-6.19 15.79-2.66 31.79-4.11 47.81-4.05 0 2.27-.2 4.54-.26 6.82-.01.3-.02.89-.03 1.19-1.65 3.46-2.28 7.28-2.46 11.09 2.57.01 5.15.02 7.72.02.67-.58 1.33-1.15 2-1.71 2.24 1.08 4.62 1.96 7.16 1.77 7.28-.16 14.58.19 21.86-.27-1.55-2.12-4.24-2.2-6.58-2.64-7.34-1.04-14.72-3.68-20.25-8.76.34-1.42.68-2.84 1.06-4.23.31-1.18.6-2.36.87-3.53zM1061.17 719.15c5.95.07 11.9-.17 17.83-.73 5.43-.61 10.88 1.11 16.29.02 3.27-.46 6.59-.38 9.88-.1l.8 1.2c13.69 1.57 27.71 2.09 40.87 6.61 3.84 1.39 8.43 2.51 10.69 6.25 1.47 2.72-1.33 5.29-3.54 6.47-7.56 3.9-16.11 5.06-24.36 6.59-9.79 1.81-19.73 2.32-29.63 3.06-26.06.8-52.38.66-78.04-4.52-5.46-1.19-11.01-2.44-15.96-5.12-2.27-1.23-4.82-3.73-3.56-6.53 2.17-3.41 6.36-4.6 9.95-5.93 7.33-2.66 15.06-3.81 22.75-4.88 5.08-.57 10.18-1.55 15.32-1.02-.07.2-.22.59-.29.79-2.09 5.43-6.78 9.63-12.26 11.46-1.87.55-4.7 1.83-3.22 4.27 5.22.99 10.3-1.19 15.36-2.17 4.6-1.27 9.44-1.91 13.82-3.9.72-2.66.32-5.5-1.06-7.87-.6-1.3-1.17-2.62-1.64-3.95z"/><path fill="#f0cfa1" d="M1096.87 718.81c2.44-1.03 5.16-.24 7.72-.33-.11.87-.33 2.61-.45 3.48-.87 1.46-1.64 3.08-3.09 4.06-1.79.37-2.98-.99-3.82-2.32-.69-1.51-.93-3.33-.36-4.89z"/><path fill="#352e27" d="M1050.17 721.31c1.39-.22 2.78.14 3.62 1.36.79 1.05 1.58 2.21 2.51 3.21 1.75.59 3.23-.75 4.12-2.11.31-.54.92-1.62 1.23-2.15l1.16 1.48c1.38 2.37 1.78 5.21 1.06 7.87-4.38 1.99-9.22 2.63-13.82 3.9-5.06.98-10.14 3.16-15.36 2.17-1.48-2.44 1.35-3.72 3.22-4.27 5.48-1.83 10.17-6.03 12.26-11.46zM1104.14 721.96c.45-.52 1.34-1.57 1.78-2.09 2.44 3.27 4.28 7.1 7.63 9.61 2.62 2.34 6.13 3.06 9.19 4.61.13.77.39 2.31.53 3.08-2.39.15-4.81.21-7.14-.3-7.54-1.73-15.06-3.52-22.5-5.62-.75-3.28-.55-7.16 2.4-9.32.3.44.9 1.32 1.2 1.77.84 1.33 2.03 2.69 3.82 2.32 1.45-.98 2.22-2.6 3.09-4.06z"/><path fill="#9fad69" d="M189.39 722.31c3.14-.9 6.45-.32 9.65-.09-.38 1.39-.72 2.81-1.06 4.23-.22.88-.45 1.76-.7 2.64-.2-2.3-.42-4.6-.63-6.89-2.14.06-4.29.12-6.43.19-.03 2.27-.09 4.56.02 6.84-.43-.57-1.28-1.71-1.71-2.28.01-.3.02-.89.03-1.19.23-1.17.5-2.32.83-3.45z"/><path fill="#f0cfa1" d="M190.22 722.39c2.14-.07 4.29-.13 6.43-.19.21 2.29.43 4.59.63 6.89-1.95 1.7-5.24 2.46-7.04.14-.11-2.28-.05-4.57-.02-6.84z"/><path fill="#352e27" d="M197.28 729.09c.25-.88.48-1.76.7-2.64 5.53 5.08 12.91 7.72 20.25 8.76 2.34.44 5.03.52 6.58 2.64-7.28.46-14.58.11-21.86.27-2.54.19-4.92-.69-7.16-1.77-.67.56-1.33 1.13-2 1.71-2.57 0-5.15-.01-7.72-.02.18-3.81.81-7.63 2.46-11.09.43.57 1.28 1.71 1.71 2.28 1.8 2.32 5.09 1.56 7.04-.14z"/></svg>